{"glyphs":{":":{"x_min":0,"x_max":193,"ha":193,"o":"m 97 350 q 81 350 71 361 q 61 372 61 386 q 61 401 71 412 q 81 422 97 422 q 111 422 122 412 q 132 401 132 386 q 132 372 122 361 q 111 350 97 350 z m 97 -6 q 81 -6 71 5 q 61 16 61 30 q 61 45 71 56 q 81 66 97 66 q 111 66 122 56 q 132 45 132 30 q 132 16 122 5 q 111 -6 97 -6 z"},"$":{"x_min":0,"x_max":484,"ha":484,"o":"m 256 -52 q 249 -52 244 -47 q 238 -42 238 -35 l 238 4 q 174 4 131 24 q 88 43 66 68 q 44 92 44 105 q 44 110 47 115 q 50 120 54 123 q 58 126 61 126 q 68 126 77 113 q 86 100 104 83 q 121 66 153 53 q 185 40 238 40 l 238 375 q 205 386 174 398 q 143 410 118 429 q 92 448 77 479 q 62 510 62 558 q 62 605 78 636 q 94 666 120 684 q 146 702 177 710 q 208 719 238 720 l 238 751 q 238 758 244 763 q 249 768 256 768 q 263 768 268 763 q 274 758 274 751 l 274 721 q 303 720 328 714 q 354 709 374 702 q 394 694 406 686 q 417 677 417 669 q 417 665 414 660 q 412 655 408 651 q 404 647 399 647 q 393 647 378 656 q 364 664 338 673 q 313 682 274 684 l 274 402 q 304 391 333 376 q 362 362 385 340 q 408 317 422 282 q 435 247 435 195 q 435 105 390 60 q 345 14 274 6 l 274 -35 q 274 -42 268 -47 q 263 -52 256 -52 z m 274 43 q 336 52 368 90 q 399 128 399 192 q 399 245 382 277 q 364 309 336 329 q 308 349 274 362 z m 238 414 l 238 684 q 203 682 171 670 q 139 659 118 633 q 98 607 98 561 q 98 514 118 486 q 137 458 169 442 q 201 427 238 414 z"},"?":{"x_min":0,"x_max":383,"ha":383,"o":"m 160 147 q 154 147 148 151 q 143 155 143 164 q 143 224 147 258 q 151 293 159 312 q 167 331 178 345 q 195 364 217 384 q 239 404 260 429 q 282 454 296 487 q 310 520 310 565 q 310 633 272 673 q 235 713 160 713 q 129 713 108 707 q 87 701 74 693 q 61 685 53 679 q 45 673 39 673 q 35 673 30 678 q 25 683 25 690 q 25 703 45 716 q 65 729 96 738 q 128 748 164 748 q 226 748 266 724 q 306 699 326 658 q 345 617 345 566 q 345 515 329 478 q 313 442 290 414 q 266 387 242 366 q 219 345 204 325 q 191 309 186 287 q 180 265 178 236 q 177 206 177 164 q 177 155 172 151 q 166 147 160 147 z m 160 -6 q 144 -6 134 5 q 124 16 124 30 q 124 45 134 56 q 145 66 160 66 q 174 66 184 56 q 195 45 195 30 q 195 16 185 5 q 175 -6 160 -6 z"},"<":{"x_min":0,"x_max":395,"ha":395,"o":"m 324 74 q 320 74 315 77 l 40 259 q 36 261 33 266 q 30 271 30 277 q 30 283 34 288 q 37 294 40 296 l 315 478 q 320 481 324 481 q 331 481 337 476 q 343 472 343 464 q 343 454 334 449 l 76 277 l 334 106 q 343 101 343 91 q 343 84 337 79 q 331 74 324 74 z"},"'":{"x_min":0,"x_max":135,"ha":135,"o":"m 67 581 q 60 581 56 586 q 53 592 53 599 l 43 751 q 43 759 52 764 q 60 768 67 768 q 75 768 84 764 q 92 759 92 751 l 82 599 q 82 592 78 586 q 75 581 67 581 z"},"=":{"x_min":0,"x_max":431,"ha":431,"o":"m 90 362 q 83 362 78 367 q 73 372 73 379 q 73 387 78 392 q 83 397 90 397 l 340 397 q 347 397 352 392 q 358 387 358 379 q 358 372 352 367 q 347 362 340 362 z m 90 159 q 83 159 78 164 q 73 169 73 176 q 73 184 78 189 q 83 194 90 194 l 340 194 q 347 194 352 189 q 358 184 358 176 q 358 169 352 164 q 347 159 340 159 z"},"a":{"x_min":0,"x_max":423,"ha":423,"o":"m 174 -6 q 116 -6 76 26 q 35 59 35 126 q 35 179 64 208 q 94 236 146 247 q 199 258 268 258 l 324 258 l 324 286 q 324 324 311 360 q 298 396 269 420 q 240 443 192 443 q 161 443 140 436 q 119 430 106 423 q 94 416 88 416 q 80 416 75 424 q 70 431 70 436 q 70 446 88 456 q 107 465 136 472 q 164 478 194 478 q 256 478 292 450 q 328 423 344 380 q 359 336 359 286 l 359 18 q 359 11 354 6 q 350 0 342 0 q 335 0 330 6 q 324 11 324 18 l 324 70 q 299 41 262 18 q 224 -6 174 -6 z m 173 29 q 211 29 246 48 q 280 66 302 92 q 324 118 324 139 l 324 223 l 269 223 q 218 223 172 217 q 127 211 98 190 q 70 170 70 126 q 70 76 100 52 q 130 29 173 29 z"},"L":{"x_min":0,"x_max":452,"ha":452,"o":"m 101 0 q 94 0 88 4 q 83 9 83 18 l 83 714 q 83 723 88 727 q 94 731 101 731 q 108 731 114 727 q 119 723 119 714 l 119 36 l 423 36 q 431 36 434 30 q 438 25 438 18 q 438 11 434 6 q 431 0 423 0 z"},"3":{"x_min":0,"x_max":473,"ha":473,"o":"m 230 -6 q 181 -6 144 8 q 107 23 82 46 q 57 69 45 96 q 33 124 33 151 q 33 168 38 174 q 42 179 49 179 q 60 179 64 172 q 68 166 68 158 q 68 143 74 121 q 81 99 98 78 q 115 58 146 44 q 177 30 226 30 q 303 30 346 72 q 388 113 388 200 l 388 219 q 388 294 346 332 q 303 369 230 369 q 220 369 216 374 q 211 380 211 387 q 211 394 216 400 q 220 405 229 405 q 276 405 308 419 q 339 433 354 464 q 370 496 370 548 q 370 620 338 658 q 307 695 233 695 q 187 695 158 682 q 129 669 114 649 q 98 629 92 608 q 87 587 87 570 q 87 559 82 552 q 77 546 69 546 q 63 546 59 548 q 55 551 53 558 q 51 565 51 576 q 51 594 58 620 q 66 646 86 672 q 105 697 142 714 q 178 731 236 731 q 287 731 325 714 q 363 697 384 659 q 406 621 406 557 q 406 484 381 444 q 356 403 322 386 q 366 367 395 327 q 424 287 424 219 l 424 200 q 424 125 398 80 q 372 35 328 14 q 284 -6 230 -6 z"},";":{"x_min":0,"x_max":195,"ha":195,"o":"m 85 -77 q 79 -77 74 -74 q 69 -70 69 -64 q 69 -59 70 -56 l 88 -5 q 76 -2 68 8 q 61 18 61 30 q 61 45 71 56 q 81 66 96 66 q 109 66 120 57 q 132 48 132 29 q 132 27 132 22 q 131 18 128 8 q 125 -2 118 -20 q 112 -37 101 -66 q 99 -71 94 -74 q 90 -77 85 -77 z m 98 350 q 82 350 72 361 q 62 372 62 386 q 62 401 72 412 q 82 422 98 422 q 112 422 122 412 q 133 401 133 386 q 133 372 122 361 q 112 350 98 350 z"},"J":{"x_min":0,"x_max":496,"ha":496,"o":"m 222 -6 q 161 -6 117 16 q 73 38 50 76 q 26 113 26 159 q 26 170 31 174 q 36 179 43 179 q 50 179 56 174 q 62 170 62 161 q 62 117 84 88 q 105 58 142 44 q 178 30 222 30 q 297 30 339 72 q 381 113 381 200 l 381 695 l 222 695 q 214 695 210 701 q 205 707 205 714 q 205 720 209 726 q 213 731 222 731 l 399 731 q 406 731 412 726 q 417 722 417 713 l 417 200 q 417 125 391 80 q 365 35 321 14 q 277 -6 222 -6 z"},"V":{"x_min":0,"x_max":519,"ha":519,"o":"m 260 -6 q 254 -6 249 -2 q 244 1 242 8 l 25 709 q 24 711 24 715 q 24 720 26 724 q 29 727 34 729 q 38 731 42 731 q 48 731 53 728 q 58 725 60 718 l 260 70 l 459 718 q 461 725 466 728 q 470 731 475 731 q 480 731 484 728 q 489 726 492 722 q 495 719 495 714 q 495 713 494 712 q 494 711 494 709 l 279 8 q 277 1 272 -2 q 266 -6 260 -6 z"},"\"":{"x_min":0,"x_max":255,"ha":255,"o":"m 187 581 q 180 581 176 586 q 173 592 173 599 l 163 751 q 163 759 172 764 q 180 768 187 768 q 195 768 204 764 q 212 759 212 751 l 202 599 q 202 592 198 586 q 195 581 187 581 z m 67 581 q 60 581 56 586 q 53 592 53 599 l 43 751 q 43 759 52 764 q 60 768 67 768 q 75 768 84 764 q 92 759 92 751 l 82 599 q 82 592 78 586 q 75 581 67 581 z"},"7":{"x_min":0,"x_max":442,"ha":442,"o":"m 89 0 q 84 0 79 2 q 74 3 72 6 q 69 10 69 15 q 69 20 72 26 l 388 646 l 388 695 l 69 695 l 69 564 q 69 557 64 552 q 58 546 51 546 q 44 546 38 552 q 33 557 33 564 l 33 713 q 33 720 38 726 q 44 731 51 731 l 406 731 q 412 731 418 726 q 424 720 424 713 l 424 641 q 424 639 424 637 q 424 635 422 633 l 104 10 q 99 0 89 0 z"},"S":{"x_min":0,"x_max":481,"ha":481,"o":"m 235 -6 q 171 -6 128 14 q 85 33 64 58 q 42 82 42 95 q 42 100 45 105 q 48 110 52 113 q 56 116 59 116 q 66 116 75 103 q 84 90 101 73 q 118 56 148 43 q 179 30 230 30 q 285 30 322 48 q 359 67 378 103 q 397 139 397 192 q 397 247 378 280 q 360 313 330 333 q 300 353 264 366 q 229 378 193 390 q 157 402 127 421 q 97 440 78 472 q 60 505 60 558 q 60 612 79 646 q 98 680 128 698 q 158 717 192 724 q 226 731 257 731 q 288 731 316 726 q 344 721 366 714 q 389 706 402 697 q 415 688 415 679 q 415 675 412 670 q 410 665 406 661 q 402 657 397 657 q 390 657 374 666 q 358 676 330 686 q 301 695 256 695 q 219 695 182 684 q 145 673 120 644 q 96 615 96 561 q 96 515 114 488 q 133 460 163 444 q 193 428 228 416 q 264 405 300 391 q 336 377 366 354 q 396 332 414 294 q 433 256 433 195 q 433 124 408 80 q 382 35 338 14 q 293 -6 235 -6 z"},"}":{"x_min":0,"x_max":285,"ha":285,"o":"m 37 -20 q 31 -20 26 -15 q 20 -10 20 -2 q 20 2 22 6 q 23 9 26 12 q 30 15 37 15 q 54 15 78 20 q 101 25 124 38 q 146 51 161 72 q 176 94 176 127 q 176 141 173 174 q 170 206 166 242 q 161 279 158 308 q 155 338 155 347 q 155 363 167 372 q 179 381 189 384 q 179 386 167 396 q 155 406 155 422 q 155 429 158 454 q 161 478 166 508 q 170 539 173 566 q 176 592 176 604 q 176 637 158 666 q 141 696 110 714 q 78 733 37 733 q 30 733 25 738 q 20 744 20 751 q 20 758 25 763 q 30 768 37 768 q 73 768 105 755 q 137 742 161 720 q 185 697 198 668 q 212 639 212 607 q 212 596 209 568 q 206 541 202 510 q 197 479 194 454 q 191 429 191 422 q 191 410 200 407 q 209 404 221 404 q 233 403 242 400 q 251 396 251 384 q 251 372 242 368 q 233 365 221 364 q 209 364 200 362 q 191 359 191 347 q 191 341 193 320 q 195 300 198 272 q 202 243 205 214 q 208 185 210 162 q 212 139 212 129 q 212 85 188 51 q 165 17 126 -2 q 86 -20 37 -20 z"},"Z":{"x_min":0,"x_max":464,"ha":464,"o":"m 45 0 q 38 0 32 5 q 27 10 27 17 q 27 23 30 29 l 380 695 l 55 695 q 46 695 42 700 q 37 706 37 713 q 37 720 42 726 q 46 731 55 731 l 410 731 q 419 731 424 727 q 428 723 428 716 q 428 708 423 700 l 74 36 l 420 36 q 429 36 434 30 q 438 25 438 18 q 438 11 434 6 q 429 0 420 0 z"},"x":{"x_min":0,"x_max":381,"ha":381,"o":"m 45 -6 q 40 -6 36 -4 q 32 -1 30 3 q 27 7 27 11 q 27 17 30 21 l 169 238 l 30 451 q 29 453 28 456 q 27 458 27 460 q 27 465 30 469 q 32 473 36 476 q 40 478 45 478 q 50 478 54 476 q 58 474 60 470 l 191 270 l 323 470 q 325 474 329 476 q 333 478 337 478 q 342 478 346 476 q 350 474 352 470 q 355 466 355 460 q 355 456 352 451 l 212 238 l 352 21 q 354 19 354 16 q 355 14 355 11 q 355 7 352 3 q 350 -1 346 -4 q 342 -6 337 -6 q 333 -6 329 -4 q 325 -2 323 2 l 191 205 l 60 2 q 57 -2 54 -4 q 50 -6 45 -6 z"},")":{"x_min":0,"x_max":278,"ha":278,"o":"m 37 -20 q 31 -20 26 -15 q 20 -10 20 -2 q 20 3 24 9 q 27 15 37 15 q 68 15 100 25 q 131 35 153 63 q 175 91 175 143 l 175 591 q 175 626 159 658 q 143 691 112 712 q 81 733 37 733 q 30 733 25 738 q 20 744 20 751 q 20 758 25 763 q 30 768 37 768 q 76 768 108 754 q 139 739 162 714 q 186 689 198 658 q 211 626 211 591 l 211 143 q 211 105 198 74 q 186 44 163 23 q 140 2 108 -9 q 76 -20 37 -20 z"},"&":{"x_min":0,"x_max":595,"ha":595,"o":"m 260 -10 q 190 -10 141 19 q 92 48 66 96 q 41 143 41 199 q 41 253 62 292 q 83 330 116 356 q 148 383 182 397 q 151 434 124 478 q 96 522 96 583 q 96 636 119 673 q 142 710 180 729 q 218 748 263 748 q 315 748 348 730 q 380 713 396 692 q 411 671 411 661 q 411 654 406 650 q 402 645 394 645 q 387 645 380 656 q 372 666 360 680 q 347 695 325 706 q 303 716 267 716 q 206 716 172 678 q 138 641 138 580 q 138 543 150 512 q 162 482 182 455 q 203 428 227 401 l 450 154 q 473 207 480 264 q 488 321 489 359 q 489 371 493 376 q 497 380 506 380 q 514 380 518 375 q 521 370 521 357 q 521 339 518 302 q 515 264 506 218 q 496 171 474 127 l 571 21 q 573 18 574 15 q 576 12 576 10 q 576 3 571 -2 q 566 -6 560 -6 q 557 -6 554 -4 q 551 -3 548 0 l 458 97 q 429 51 381 20 q 333 -10 260 -10 z m 266 25 q 330 25 370 52 q 410 80 434 122 l 203 371 q 178 358 149 338 q 120 317 99 285 q 78 253 78 203 q 78 157 100 116 q 122 75 164 50 q 206 25 266 25 z"},"_":{"x_min":0,"x_max":345,"ha":345,"o":"m 13 -35 q 6 -35 1 -30 q -4 -25 -4 -18 q -4 -10 1 -5 q 6 0 13 0 l 333 0 q 340 0 346 -5 q 351 -10 351 -18 q 351 -25 346 -30 q 340 -35 333 -35 z"},"v":{"x_min":0,"x_max":392,"ha":392,"o":"m 196 -6 q 189 -6 185 -3 q 181 0 179 6 l 23 440 q 22 442 20 446 q 19 451 19 454 q 19 459 22 463 q 24 467 28 470 q 32 472 37 472 q 42 472 47 469 q 52 466 54 461 l 196 68 l 337 455 q 339 461 342 466 q 344 472 354 472 q 359 472 363 470 q 367 468 370 464 q 373 460 373 455 q 373 451 372 446 q 370 442 369 440 l 213 6 q 211 1 206 -2 q 202 -6 196 -6 z"},"O":{"x_min":0,"x_max":543,"ha":543,"o":"m 271 -6 q 216 -6 172 14 q 128 35 102 80 q 76 125 76 200 l 76 525 q 76 600 102 645 q 128 690 172 710 q 216 731 271 731 q 326 731 370 710 q 415 690 441 645 q 467 600 467 525 l 467 200 q 467 125 441 80 q 415 35 370 14 q 326 -6 271 -6 z m 271 30 q 346 30 388 72 q 431 113 431 200 l 431 525 q 431 612 388 654 q 346 695 271 695 q 196 695 154 654 q 112 612 112 525 l 112 200 q 112 113 154 72 q 196 30 271 30 z"},"(":{"x_min":0,"x_max":278,"ha":278,"o":"m 241 -20 q 202 -20 170 -9 q 138 2 115 23 q 92 44 80 74 q 67 105 67 143 l 67 591 q 67 626 80 658 q 92 689 116 714 q 139 739 170 754 q 202 768 241 768 q 248 768 253 763 q 258 758 258 751 q 258 744 253 738 q 248 733 241 733 q 197 733 166 712 q 135 691 119 658 q 103 626 103 591 l 103 143 q 103 91 125 63 q 147 35 179 25 q 211 15 241 15 q 251 15 254 9 q 258 3 258 -2 q 258 -10 252 -15 q 247 -20 241 -20 z"},"C":{"x_min":0,"x_max":512,"ha":512,"o":"m 272 -6 q 219 -6 174 14 q 129 35 102 80 q 76 125 76 200 l 76 525 q 76 600 104 645 q 131 690 176 710 q 221 731 275 731 q 339 731 382 708 q 424 685 446 649 q 467 613 467 574 q 467 557 462 552 q 458 546 449 546 q 436 546 434 552 q 431 559 431 564 q 430 582 424 604 q 417 627 400 648 q 384 668 354 682 q 323 695 274 695 q 195 695 154 654 q 112 612 112 525 l 112 200 q 112 112 154 71 q 196 30 278 30 q 328 30 357 43 q 386 56 401 76 q 416 96 422 119 q 428 142 431 161 q 432 168 435 174 q 438 179 449 179 q 458 179 462 173 q 467 167 467 150 q 467 112 445 76 q 423 40 380 17 q 336 -6 272 -6 z"},"W":{"x_min":0,"x_max":739,"ha":739,"o":"m 242 -6 q 236 -6 231 -2 q 226 1 224 8 l 27 709 q 26 712 26 715 q 26 721 28 724 q 31 728 35 730 q 39 731 43 731 q 49 731 55 728 q 61 724 62 718 l 242 70 l 348 455 q 351 466 357 469 q 363 472 370 472 q 378 472 382 469 q 387 466 390 455 l 498 70 l 677 718 q 679 724 684 728 q 690 731 696 731 q 701 731 704 730 q 708 728 710 724 q 713 721 713 715 q 713 712 712 709 l 517 8 q 515 1 510 -2 q 505 -6 498 -6 q 492 -6 487 -2 q 482 1 480 8 l 370 400 l 261 8 q 259 1 254 -2 q 249 -6 242 -6 z"},"A":{"x_min":0,"x_max":521,"ha":521,"o":"m 43 0 q 39 0 34 2 q 30 4 28 8 q 25 11 25 16 q 25 20 26 22 l 243 723 q 245 731 250 734 q 255 737 261 737 q 267 737 272 734 q 278 730 280 723 l 495 22 q 496 20 496 17 q 496 13 493 9 q 490 5 486 2 q 481 0 476 0 q 471 0 466 3 q 462 6 460 13 l 409 177 l 111 177 l 61 13 q 59 6 54 3 q 49 0 43 0 z m 122 213 l 398 213 l 261 661 z"},"f":{"x_min":0,"x_max":289,"ha":289,"o":"m 85 0 q 78 0 74 5 q 69 10 69 17 l 69 590 q 69 638 94 678 q 118 719 158 744 q 199 768 247 768 l 257 768 q 265 768 270 763 q 275 758 275 750 q 275 743 270 738 q 265 733 257 733 l 247 733 q 207 733 174 712 q 142 692 124 660 q 105 627 104 590 l 104 472 l 257 472 q 265 472 270 467 q 275 462 275 455 q 275 448 270 442 q 265 437 257 437 l 104 437 l 104 17 q 104 10 98 5 q 93 0 85 0 z"},"Q":{"x_min":0,"x_max":543,"ha":543,"o":"m 272 -109 q 265 -109 260 -104 q 254 -100 254 -91 l 254 -5 q 203 -2 162 19 q 122 40 99 84 q 76 129 76 200 l 76 525 q 76 600 102 645 q 128 690 172 710 q 216 731 271 731 q 326 731 370 710 q 415 690 441 645 q 467 600 467 525 l 467 200 q 467 129 444 84 q 421 40 381 19 q 341 -2 290 -5 l 290 -91 q 290 -100 284 -104 q 279 -109 272 -109 z m 254 30 l 254 114 q 254 123 260 127 q 265 131 272 131 q 279 131 284 127 q 290 123 290 114 l 290 31 q 356 36 394 77 q 431 118 431 200 l 431 525 q 431 612 388 654 q 346 695 271 695 q 196 695 154 654 q 112 612 112 525 l 112 200 q 112 118 150 76 q 187 35 254 30 z"},"w":{"x_min":0,"x_max":654,"ha":654,"o":"m 196 -6 q 189 -6 186 -2 q 183 1 179 11 l 23 441 q 22 443 20 448 q 19 452 19 454 q 19 459 22 463 q 24 467 28 470 q 32 472 37 472 q 42 472 47 469 q 52 466 54 461 l 195 70 l 310 432 q 312 438 316 442 q 321 445 328 445 q 335 445 340 442 q 344 438 346 432 l 457 65 l 601 461 q 604 472 617 472 q 622 472 626 470 q 630 468 632 464 q 635 461 635 455 q 635 452 634 448 q 632 443 631 441 l 474 6 q 472 -1 468 -4 q 464 -6 459 -6 q 453 -6 450 -4 q 448 -1 445 5 l 328 380 l 213 11 q 210 2 206 -2 q 202 -6 196 -6 z"},"-":{"x_min":0,"x_max":395,"ha":395,"o":"m 67 223 q 60 223 55 228 q 50 233 50 240 q 50 248 55 253 q 60 258 67 258 l 327 258 q 334 258 340 253 q 345 248 345 240 q 345 233 340 228 q 334 223 327 223 z"},"E":{"x_min":0,"x_max":498,"ha":498,"o":"m 101 0 q 94 0 88 4 q 83 9 83 18 l 83 713 q 83 722 88 726 q 94 731 101 731 l 457 731 q 466 731 470 726 q 474 720 474 714 q 474 707 470 701 q 465 695 457 695 l 119 695 l 119 384 l 279 384 q 287 384 292 378 q 296 373 296 365 q 296 359 292 354 q 288 348 279 348 l 119 348 l 119 36 l 457 36 q 465 36 470 30 q 474 25 474 17 q 474 11 470 6 q 466 0 457 0 z"},"s":{"x_min":0,"x_max":373,"ha":373,"o":"m 184 -6 q 139 -6 106 6 q 74 17 56 32 q 38 47 38 59 q 38 64 40 68 q 42 71 46 74 q 49 76 52 76 q 61 76 74 64 q 86 53 111 41 q 136 29 183 29 q 246 29 273 54 q 300 78 300 112 q 300 151 282 172 q 264 194 235 206 q 206 217 174 226 q 142 235 113 248 q 84 260 66 284 q 48 307 48 348 q 48 378 64 408 q 79 438 112 458 q 144 478 196 478 q 226 478 254 472 q 282 465 300 456 q 318 446 318 436 q 318 433 316 428 q 313 423 310 420 q 306 416 301 416 q 295 416 282 423 q 269 430 248 436 q 227 443 197 443 q 155 443 130 428 q 105 412 94 390 q 83 369 83 349 q 83 316 101 298 q 119 280 148 270 q 177 260 209 251 q 241 242 270 228 q 299 213 317 186 q 335 160 335 114 q 335 59 295 26 q 255 -6 184 -6 z"},">":{"x_min":0,"x_max":395,"ha":395,"o":"m 71 74 q 64 74 58 79 q 52 84 52 91 q 52 101 61 106 l 319 277 l 61 449 q 52 454 52 464 q 52 472 58 476 q 64 481 71 481 q 76 481 80 478 l 355 296 q 358 294 362 288 q 365 283 365 277 q 365 271 362 266 q 359 261 355 259 l 80 77 q 76 74 71 74 z"},"l":{"x_min":0,"x_max":189,"ha":189,"o":"m 94 0 q 87 0 82 6 q 77 11 77 18 l 77 751 q 77 759 82 764 q 87 768 94 768 q 102 768 107 764 q 112 759 112 751 l 112 18 q 112 11 107 6 q 102 0 94 0 z"},"8":{"x_min":0,"x_max":489,"ha":489,"o":"m 245 -6 q 190 -6 146 14 q 101 35 75 80 q 49 126 49 200 l 49 212 q 49 289 78 334 q 107 379 153 398 q 115 415 92 454 q 68 492 68 557 q 68 624 92 662 q 115 700 155 716 q 195 731 245 731 q 295 731 335 716 q 375 700 398 662 q 422 624 422 557 q 422 492 398 454 q 375 415 337 398 q 384 379 412 334 q 440 289 440 212 l 440 200 q 440 126 414 80 q 388 35 344 14 q 300 -6 245 -6 z m 246 30 q 320 30 362 72 q 404 114 404 200 l 404 212 q 404 298 362 338 q 319 379 245 379 q 171 379 128 338 q 85 298 85 212 l 85 200 q 85 113 128 72 q 171 30 246 30 z m 245 416 q 311 416 348 449 q 386 482 386 557 q 386 631 348 663 q 311 695 245 695 q 179 695 142 663 q 104 631 104 557 q 104 482 142 449 q 179 416 245 416 z"},"\\":{"x_min":0,"x_max":340,"ha":340,"o":"m 296 0 q 291 0 286 2 q 281 5 279 12 l 29 727 q 28 730 28 735 q 28 744 34 749 q 39 754 46 754 q 51 754 55 752 q 59 750 60 745 l 312 21 q 313 20 313 18 q 313 17 313 15 q 313 8 308 4 q 303 0 296 0 z"},"e":{"x_min":0,"x_max":445,"ha":445,"o":"m 253 -6 q 194 -6 148 17 q 103 40 77 80 q 51 121 51 176 l 51 301 q 51 349 76 390 q 100 430 140 454 q 181 478 229 478 q 276 478 316 454 q 357 431 382 390 q 406 350 406 298 q 406 262 394 246 q 382 230 364 226 q 345 223 323 223 l 86 223 l 86 176 q 86 108 134 68 q 182 29 255 29 q 297 29 319 40 q 341 50 352 60 q 364 70 373 70 q 378 70 382 67 q 386 64 388 60 q 391 56 391 52 q 391 43 374 29 q 358 15 327 4 q 296 -6 253 -6 z m 86 258 l 311 258 q 348 258 360 265 q 371 272 371 295 q 371 331 354 365 q 336 399 304 421 q 272 443 229 443 q 189 443 156 423 q 124 403 105 371 q 86 339 86 301 z"},"b":{"x_min":0,"x_max":468,"ha":468,"o":"m 240 -6 q 194 -6 158 16 q 121 39 104 70 l 104 18 q 104 11 99 6 q 94 0 86 0 q 79 0 74 6 q 69 11 69 18 l 69 751 q 69 759 74 764 q 79 768 86 768 q 94 768 99 764 q 104 759 104 751 l 104 402 q 121 431 154 454 q 188 478 238 478 q 287 478 328 454 q 369 429 394 388 q 418 348 418 298 l 418 176 q 418 129 394 87 q 369 45 328 20 q 288 -6 240 -6 z m 242 29 q 280 29 312 50 q 344 71 364 105 q 383 139 383 176 l 383 298 q 383 335 364 368 q 344 401 312 422 q 280 443 241 443 q 207 443 176 426 q 144 408 124 376 q 104 344 104 298 l 104 139 q 104 122 122 96 q 140 70 172 50 q 203 29 242 29 z"},"%":{"x_min":0,"x_max":741,"ha":741,"o":"m 179 -20 q 173 -20 168 -16 q 163 -12 163 -5 q 163 1 165 4 l 556 760 q 560 768 569 768 q 575 768 581 762 q 587 757 587 749 q 587 744 584 738 l 196 -9 q 193 -15 188 -18 q 184 -20 179 -20 z m 161 362 q 112 362 79 386 q 46 411 46 469 l 46 624 q 46 682 79 706 q 112 731 161 731 q 194 731 220 720 q 246 710 261 686 q 276 663 276 624 l 276 469 q 276 430 261 406 q 246 383 220 372 q 194 362 161 362 z m 161 393 q 199 393 221 412 q 243 430 243 469 l 243 624 q 243 663 221 682 q 199 700 161 700 q 123 700 102 682 q 80 663 80 624 l 80 469 q 80 430 102 412 q 123 393 161 393 z m 580 -3 q 531 -3 498 22 q 465 46 465 104 l 465 259 q 465 317 498 342 q 531 366 580 366 q 613 366 639 356 q 665 345 680 322 q 695 298 695 259 l 695 104 q 695 65 680 42 q 665 18 639 8 q 613 -3 580 -3 z m 580 28 q 618 28 640 46 q 662 65 662 104 l 662 259 q 662 298 640 316 q 618 335 580 335 q 542 335 520 316 q 499 298 499 259 l 499 104 q 499 65 520 46 q 542 28 580 28 z"},"m":{"x_min":0,"x_max":767,"ha":767,"o":"m 85 0 q 78 0 73 6 q 68 11 68 18 l 68 455 q 68 463 73 468 q 78 472 85 472 q 93 472 98 468 q 103 463 103 455 l 103 402 q 120 431 154 454 q 187 478 237 478 q 289 478 328 450 q 368 422 387 378 q 413 429 454 454 q 496 478 539 478 q 581 478 618 457 q 656 436 680 396 q 703 356 703 298 l 703 18 q 703 11 698 6 q 693 0 685 0 q 678 0 673 6 q 668 11 668 18 l 668 298 q 668 346 648 378 q 629 410 599 426 q 569 443 538 443 q 504 443 474 426 q 443 408 423 377 q 403 346 403 304 l 403 17 q 403 8 398 4 q 392 0 385 0 q 379 0 374 4 q 368 8 368 17 l 368 303 q 368 343 350 374 q 333 406 304 424 q 275 443 239 443 q 206 443 174 426 q 143 408 123 376 q 103 344 103 298 l 103 18 q 103 11 98 6 q 93 0 85 0 z"},"#":{"x_min":0,"x_max":547,"ha":547,"o":"m 140 36 q 133 36 128 41 q 123 46 123 55 l 154 268 l 50 268 q 40 268 36 272 q 32 276 32 283 q 32 289 36 294 q 39 298 44 298 l 160 298 l 186 475 l 81 475 q 71 475 67 480 q 63 484 63 491 q 63 497 66 501 q 70 505 75 505 l 191 505 l 221 703 q 222 708 226 710 q 229 713 233 713 q 243 713 248 707 q 252 701 252 693 l 223 505 l 358 505 l 388 703 q 389 708 392 710 q 396 713 400 713 q 410 713 414 707 q 419 701 419 693 l 390 505 l 497 505 q 503 505 510 502 q 516 498 516 490 q 516 485 512 480 q 508 475 503 475 l 386 475 l 359 298 l 466 298 q 472 298 478 294 q 485 290 485 282 q 485 277 481 272 q 477 268 472 268 l 354 268 l 322 51 q 321 44 316 40 q 311 36 305 36 q 301 36 297 38 q 293 41 291 45 q 289 49 289 55 l 321 268 l 187 268 l 155 52 q 154 43 150 40 q 145 36 140 36 z m 192 298 l 326 298 l 353 475 l 219 475 z"},",":{"x_min":0,"x_max":162,"ha":162,"o":"m 69 -77 q 63 -77 58 -74 q 53 -70 53 -64 q 53 -59 54 -56 l 72 -5 q 60 -2 52 8 q 45 18 45 30 q 45 45 55 56 q 65 66 80 66 q 93 66 104 57 q 116 48 116 29 q 116 27 116 22 q 115 18 112 8 q 109 -2 102 -20 q 96 -37 85 -66 q 83 -71 78 -74 q 74 -77 69 -77 z"},"n":{"x_min":0,"x_max":481,"ha":481,"o":"m 85 0 q 78 0 73 6 q 68 11 68 18 l 68 455 q 68 463 73 468 q 78 472 85 472 q 93 472 98 468 q 103 463 103 455 l 103 402 q 120 431 154 454 q 187 478 237 478 q 286 478 327 454 q 368 429 392 388 q 417 348 417 298 l 417 18 q 417 9 412 4 q 406 0 399 0 q 393 0 388 4 q 382 9 382 18 l 382 298 q 382 335 362 368 q 343 401 311 422 q 279 443 240 443 q 206 443 174 426 q 143 408 123 376 q 103 344 103 298 l 103 18 q 103 11 98 6 q 93 0 85 0 z"},"h":{"x_min":0,"x_max":482,"ha":482,"o":"m 86 0 q 79 0 74 6 q 69 11 69 18 l 69 751 q 69 759 74 764 q 79 768 86 768 q 94 768 99 764 q 104 759 104 751 l 104 402 q 121 431 154 454 q 188 478 238 478 q 287 478 328 454 q 369 429 394 388 q 418 348 418 298 l 418 18 q 418 9 412 4 q 407 0 400 0 q 394 0 388 4 q 383 9 383 18 l 383 298 q 383 335 364 368 q 344 401 312 422 q 280 443 241 443 q 207 443 176 426 q 144 408 124 376 q 104 344 104 298 l 104 18 q 104 11 99 6 q 94 0 86 0 z"},"z":{"x_min":0,"x_max":385,"ha":385,"o":"m 44 0 q 37 0 32 4 q 26 9 26 16 q 26 18 27 22 q 28 26 30 28 l 297 437 l 54 437 q 47 437 42 442 q 36 447 36 454 q 36 462 42 467 q 47 472 54 472 l 331 472 q 339 472 344 467 q 349 462 349 454 q 349 449 346 444 l 78 35 l 341 35 q 349 35 354 30 q 359 25 359 17 q 359 10 354 5 q 349 0 341 0 z"},"B":{"x_min":0,"x_max":527,"ha":527,"o":"m 101 0 q 93 0 88 5 q 83 10 83 17 l 83 713 q 83 722 88 726 q 94 731 101 731 l 251 731 q 309 731 356 718 q 402 706 429 670 q 456 634 456 564 q 456 500 432 456 q 409 413 371 396 q 402 383 425 362 q 448 340 461 306 q 474 272 474 220 l 474 203 q 474 128 448 84 q 422 39 378 20 q 333 0 278 0 z m 119 36 l 278 36 q 353 36 396 76 q 438 116 438 203 l 438 220 q 438 307 396 342 q 353 378 278 378 l 119 378 z m 119 414 l 258 414 q 341 414 380 446 q 420 477 420 564 q 420 620 398 648 q 377 676 340 686 q 302 695 253 695 l 119 695 z"},"K":{"x_min":0,"x_max":508,"ha":508,"o":"m 101 0 q 94 0 88 4 q 83 9 83 18 l 83 714 q 83 723 88 727 q 94 731 101 731 q 108 731 114 727 q 119 723 119 714 l 119 322 l 442 725 q 447 731 456 731 q 461 731 465 728 q 469 726 472 722 q 474 717 474 712 q 474 710 473 707 q 472 704 470 702 l 239 415 l 497 27 q 500 23 500 18 q 500 13 498 9 q 495 5 490 2 q 486 0 481 0 q 477 0 473 2 q 469 5 466 9 l 215 385 l 119 265 l 119 18 q 119 9 114 4 q 108 0 101 0 z"},"R":{"x_min":0,"x_max":509,"ha":509,"o":"m 456 0 q 446 0 439 13 q 432 26 427 36 l 267 348 l 119 348 l 119 18 q 119 9 114 4 q 108 0 101 0 q 94 0 88 4 q 83 9 83 18 l 83 714 q 83 721 88 726 q 93 730 101 731 l 268 731 q 323 731 370 714 q 417 696 446 654 q 474 613 474 540 q 474 476 452 436 q 429 396 391 376 q 353 356 306 350 l 471 29 q 473 26 474 23 q 474 20 474 18 q 474 13 472 9 q 469 5 465 2 q 461 0 456 0 z m 119 384 l 268 384 q 343 384 390 420 q 438 457 438 540 q 438 623 390 659 q 343 695 268 695 l 119 695 z"},"T":{"x_min":0,"x_max":455,"ha":455,"o":"m 228 0 q 221 0 216 4 q 210 9 210 18 l 210 695 l 32 695 q 24 695 19 700 q 14 706 14 713 q 14 720 19 726 q 24 731 32 731 l 423 731 q 432 731 436 726 q 441 721 441 714 q 441 707 437 701 q 433 695 423 695 l 246 695 l 246 18 q 246 9 240 4 q 235 0 228 0 z"},"P":{"x_min":0,"x_max":513,"ha":513,"o":"m 101 0 q 94 0 88 4 q 83 9 83 18 l 83 714 q 83 721 88 726 q 93 730 101 731 l 278 731 q 333 731 378 710 q 422 690 448 645 q 474 600 474 525 l 474 513 q 474 438 448 392 q 422 347 378 326 q 333 306 278 306 l 119 306 l 119 18 q 119 9 114 4 q 108 0 101 0 z m 119 342 l 278 342 q 353 342 396 384 q 438 426 438 513 l 438 525 q 438 612 396 654 q 353 695 278 695 l 119 695 z"},"|":{"x_min":0,"x_max":184,"ha":184,"o":"m 92 -21 q 85 -21 80 -16 q 74 -11 74 -4 l 74 751 q 74 758 80 763 q 85 768 92 768 q 99 768 104 763 q 110 758 110 751 l 110 -4 q 110 -11 104 -16 q 99 -21 92 -21 z"},"t":{"x_min":0,"x_max":272,"ha":272,"o":"m 212 0 q 141 0 104 33 q 66 66 66 139 l 66 686 q 66 694 72 698 q 77 703 83 703 q 90 703 96 698 q 101 694 101 686 l 101 472 l 236 472 q 243 472 248 467 q 253 462 253 454 q 253 447 248 442 q 243 437 236 437 l 101 437 l 101 139 q 101 82 126 58 q 151 35 212 35 l 235 35 q 242 35 247 30 q 252 26 252 18 q 252 11 247 6 q 242 0 235 0 z"},"M":{"x_min":0,"x_max":653,"ha":653,"o":"m 101 0 q 94 0 88 4 q 83 9 83 18 l 83 714 q 83 724 88 728 q 94 731 101 731 q 108 731 114 724 q 120 717 125 708 q 130 700 132 695 l 326 313 l 521 695 q 524 700 528 708 q 533 717 540 724 q 546 731 552 731 q 560 731 565 728 q 570 724 570 714 l 570 18 q 570 9 564 4 q 559 0 552 0 q 545 0 540 4 q 534 9 534 18 l 534 643 l 345 279 q 340 269 336 264 q 331 260 326 260 q 322 260 317 264 q 312 269 307 279 l 119 643 l 119 18 q 119 9 114 4 q 108 0 101 0 z"},"g":{"x_min":0,"x_max":446,"ha":446,"o":"m 226 -237 q 168 -237 124 -221 q 81 -205 56 -176 q 32 -147 32 -108 q 32 -62 60 -36 q 89 -9 123 3 q 96 11 79 26 q 62 42 62 74 q 62 102 76 118 q 89 133 111 143 q 86 165 72 198 q 59 230 59 269 l 59 314 q 59 362 79 399 q 99 436 136 457 q 172 478 220 478 q 257 478 287 466 q 317 453 339 430 q 353 456 374 474 q 395 491 414 491 q 425 491 430 485 q 435 479 435 471 q 435 462 430 457 q 424 452 417 452 q 404 452 388 443 q 371 434 357 406 q 370 388 376 364 q 382 340 382 314 l 382 269 q 382 222 362 184 q 341 146 304 124 q 267 103 219 103 q 173 103 137 124 q 122 117 110 106 q 97 96 97 76 q 97 51 120 40 q 143 29 179 25 q 215 21 255 17 q 295 13 331 2 q 367 -9 390 -33 q 413 -57 413 -102 q 413 -145 390 -175 q 367 -205 326 -221 q 284 -237 226 -237 z m 226 -205 q 300 -205 339 -177 q 378 -149 378 -103 q 378 -67 356 -48 q 333 -30 299 -22 q 265 -15 230 -12 q 196 -10 172 -7 q 132 -18 100 -40 q 67 -63 67 -105 q 67 -149 108 -177 q 150 -205 226 -205 z m 221 138 q 280 138 314 176 q 347 213 347 269 l 347 314 q 347 369 314 406 q 280 443 220 443 q 160 443 127 406 q 94 369 94 314 l 94 270 q 94 214 128 176 q 161 138 221 138 z"},"j":{"x_min":0,"x_max":173,"ha":173,"o":"m -18 -237 q -25 -237 -30 -232 q -36 -226 -36 -219 q -36 -211 -30 -206 q -25 -202 -18 -202 q 21 -202 40 -182 q 58 -162 64 -127 q 69 -92 69 -48 l 69 455 q 69 463 74 468 q 79 472 86 472 q 94 472 99 468 q 104 463 104 455 l 104 -48 q 104 -103 92 -146 q 81 -189 54 -213 q 28 -237 -18 -237 z m 86 628 q 73 628 64 638 q 54 647 54 660 q 54 673 64 682 q 73 691 86 691 q 99 691 108 682 q 117 673 117 660 q 117 647 108 638 q 99 628 86 628 z"},"i":{"x_min":0,"x_max":171,"ha":171,"o":"m 85 0 q 78 0 73 6 q 68 11 68 18 l 68 455 q 68 463 73 468 q 78 472 85 472 q 93 472 98 468 q 103 463 103 455 l 103 18 q 103 11 98 6 q 93 0 85 0 z m 85 628 q 72 628 62 638 q 53 647 53 660 q 53 673 62 682 q 72 691 85 691 q 98 691 107 682 q 116 673 116 660 q 116 647 107 638 q 98 628 85 628 z"},"y":{"x_min":0,"x_max":395,"ha":395,"o":"m 36 -237 q 29 -237 24 -232 q 19 -227 19 -220 q 19 -213 22 -208 q 26 -202 34 -202 q 61 -202 82 -182 q 104 -163 122 -130 q 139 -98 153 -60 q 167 -23 180 13 l 20 455 q 18 459 18 461 q 18 466 20 470 q 23 473 28 476 q 32 478 37 478 q 42 478 47 475 q 52 472 53 467 l 198 67 l 342 467 q 344 472 348 475 q 353 478 358 478 q 363 478 367 476 q 371 474 374 470 q 376 467 376 461 q 376 457 375 455 l 215 13 q 202 -24 185 -68 q 168 -111 146 -150 q 125 -188 98 -212 q 70 -237 36 -237 z"},"@":{"x_min":0,"x_max":707,"ha":707,"o":"m 326 -90 q 275 -90 228 -72 q 180 -54 142 -16 q 105 21 83 80 q 61 139 61 220 q 61 311 92 386 q 122 462 188 507 q 255 552 363 552 q 459 552 525 516 q 591 480 625 410 q 659 339 659 234 q 659 186 650 142 q 640 97 617 69 q 594 41 551 41 q 516 41 490 60 q 464 79 457 102 q 431 77 406 64 q 380 52 336 52 q 301 52 272 62 q 243 72 226 95 q 210 118 210 158 q 210 203 233 226 q 256 250 300 258 q 343 267 404 267 l 453 267 l 453 288 q 453 335 428 357 q 402 379 346 379 q 313 379 296 374 q 279 368 270 362 q 261 356 253 356 q 248 356 244 359 q 240 362 238 366 q 236 371 236 374 q 236 386 254 395 q 273 404 300 409 q 328 414 355 414 q 399 414 428 399 q 458 384 473 356 q 488 329 488 289 l 488 125 q 490 104 510 89 q 531 74 553 74 q 575 74 589 88 q 603 103 611 127 q 619 151 622 178 q 625 206 625 233 q 625 364 560 440 q 494 515 360 515 q 285 515 234 491 q 184 467 153 425 q 122 383 108 330 q 95 278 95 221 q 95 168 107 118 q 119 69 146 30 q 174 -9 219 -32 q 264 -55 329 -55 q 375 -55 404 -46 q 432 -38 449 -30 q 466 -22 475 -22 q 481 -22 486 -26 q 490 -31 490 -36 q 490 -44 476 -53 q 463 -62 440 -70 q 416 -79 386 -84 q 357 -90 326 -90 z m 334 85 q 373 85 400 98 q 426 111 440 130 q 453 149 453 166 l 453 233 l 405 233 q 360 233 324 229 q 288 225 266 209 q 245 193 245 157 q 245 118 271 102 q 297 85 334 85 z"},".":{"x_min":0,"x_max":161,"ha":161,"o":"m 81 -6 q 65 -6 55 5 q 45 16 45 30 q 45 45 55 56 q 65 66 81 66 q 95 66 106 56 q 116 45 116 30 q 116 16 106 5 q 95 -6 81 -6 z"},"p":{"x_min":0,"x_max":468,"ha":468,"o":"m 86 -237 q 79 -237 74 -232 q 69 -226 69 -219 l 69 455 q 69 463 74 468 q 79 472 86 472 q 94 472 99 468 q 104 463 104 455 l 104 402 q 121 431 154 454 q 188 478 238 478 q 287 478 328 454 q 369 429 394 388 q 418 348 418 298 l 418 176 q 418 129 394 87 q 369 45 328 20 q 288 -6 240 -6 q 194 -6 158 16 q 121 39 104 70 l 104 -219 q 104 -226 99 -232 q 94 -237 86 -237 z m 242 29 q 280 29 312 50 q 344 71 364 105 q 383 139 383 176 l 383 298 q 383 335 364 368 q 344 401 312 422 q 280 443 241 443 q 207 443 176 426 q 144 408 124 376 q 104 344 104 298 l 104 139 q 104 122 122 96 q 140 70 172 50 q 203 29 242 29 z"},"X":{"x_min":0,"x_max":447,"ha":447,"o":"m 46 0 q 41 0 37 2 q 33 5 30 9 q 28 13 28 18 q 28 23 31 29 l 203 366 l 33 700 q 28 710 28 717 q 28 722 30 725 q 32 728 36 730 q 40 731 46 731 q 57 731 64 718 q 71 706 76 695 l 223 405 l 371 695 q 376 706 384 718 q 391 731 401 731 q 407 731 411 730 q 415 728 417 725 q 419 722 419 717 q 419 710 414 700 l 243 366 l 416 29 q 419 23 419 18 q 419 13 416 9 q 414 5 410 2 q 406 0 401 0 q 391 0 384 13 q 377 26 372 36 l 223 327 l 75 36 q 70 26 64 13 q 57 0 46 0 z"},"*":{"x_min":0,"x_max":416,"ha":416,"o":"m 117 407 q 113 407 108 409 q 103 411 100 416 q 96 420 96 425 q 96 431 100 436 l 184 546 l 50 586 q 44 588 42 592 q 39 597 39 602 q 39 610 44 616 q 49 622 57 622 q 58 622 60 622 q 61 622 62 621 l 195 574 l 190 714 q 190 722 196 726 q 201 731 208 731 q 215 731 220 726 q 226 722 226 714 l 221 573 l 354 621 q 356 622 360 622 q 367 622 372 616 q 377 609 377 602 q 377 597 374 592 q 371 588 365 586 l 232 547 l 317 435 q 320 431 320 426 q 320 418 314 412 q 308 407 300 407 q 297 407 294 408 q 290 410 287 414 l 208 529 l 128 413 q 126 410 123 408 q 120 407 117 407 z"},"Y":{"x_min":0,"x_max":509,"ha":509,"o":"m 254 0 q 247 0 242 4 q 236 9 236 18 l 236 273 q 236 277 235 279 l 28 695 q 25 701 24 706 q 22 711 22 715 q 22 720 24 724 q 26 727 28 729 q 31 731 35 731 q 40 731 46 727 q 51 723 55 714 l 254 313 l 454 714 q 459 723 464 727 q 470 731 474 731 q 478 731 480 729 q 483 727 484 724 q 486 720 486 715 q 486 711 485 706 q 484 701 481 695 l 273 279 q 272 277 272 273 l 272 18 q 272 9 266 4 q 261 0 254 0 z"},"c":{"x_min":0,"x_max":402,"ha":402,"o":"m 235 -6 q 173 -6 132 18 q 92 42 72 83 q 52 124 52 176 l 52 296 q 52 347 72 388 q 91 430 132 454 q 173 478 235 478 q 275 478 304 468 q 334 457 350 444 q 366 430 366 419 q 366 415 364 411 q 361 407 357 404 q 353 402 348 402 q 340 402 328 412 q 317 423 296 433 q 275 443 235 443 q 163 443 125 404 q 87 364 87 296 l 87 176 q 87 108 125 68 q 163 29 236 29 q 278 29 300 40 q 323 50 334 60 q 346 70 355 70 q 360 70 364 68 q 367 65 370 62 q 372 58 372 53 q 372 43 356 29 q 339 15 308 4 q 278 -6 235 -6 z"},"!":{"x_min":0,"x_max":193,"ha":193,"o":"m 96 147 q 91 147 86 152 q 81 156 81 163 q 81 253 78 346 q 76 440 73 534 q 70 627 70 717 q 70 732 78 740 q 85 748 96 748 q 107 748 115 740 q 123 732 123 717 q 123 627 120 534 q 118 440 115 346 q 112 253 112 163 q 112 156 106 152 q 101 147 96 147 z m 97 -6 q 81 -6 71 5 q 61 16 61 30 q 61 45 71 56 q 81 66 97 66 q 111 66 122 56 q 132 45 132 30 q 132 16 122 5 q 111 -6 97 -6 z"},"/":{"x_min":0,"x_max":468,"ha":468,"o":"m 38 -20 q 32 -20 27 -16 q 22 -12 22 -5 q 22 1 24 4 l 415 760 q 419 768 428 768 q 434 768 440 762 q 446 757 446 749 q 446 744 443 738 l 55 -9 q 52 -15 48 -18 q 43 -20 38 -20 z"},"[":{"x_min":0,"x_max":285,"ha":285,"o":"m 92 -21 q 85 -21 80 -16 q 74 -11 74 -4 l 74 751 q 74 758 80 763 q 85 768 92 768 l 248 768 q 255 768 260 763 q 265 758 265 751 q 265 744 260 738 q 255 733 248 733 l 110 733 l 110 14 l 248 14 q 255 14 260 9 q 265 4 265 -4 q 265 -11 260 -16 q 255 -21 248 -21 z"},"6":{"x_min":0,"x_max":504,"ha":504,"o":"m 261 -6 q 206 -6 162 14 q 117 35 91 80 q 65 125 65 200 l 65 525 q 65 600 91 645 q 117 690 161 710 q 205 731 260 731 q 306 731 342 718 q 379 705 404 682 q 429 658 442 628 q 456 599 456 566 q 456 556 451 551 q 446 546 439 546 q 432 546 426 550 q 420 555 420 564 q 420 604 398 633 q 377 662 340 678 q 304 695 260 695 q 185 695 143 654 q 101 612 101 525 l 101 351 q 127 389 169 407 q 211 425 261 425 q 316 425 360 407 q 404 389 430 346 q 456 304 456 229 l 456 200 q 456 125 430 80 q 404 35 360 14 q 316 -6 261 -6 z m 261 30 q 336 30 378 72 q 420 113 420 200 l 420 229 q 420 316 378 352 q 336 389 261 389 q 188 389 144 355 q 101 321 101 238 l 101 200 q 101 113 144 72 q 186 30 261 30 z"},"r":{"x_min":0,"x_max":308,"ha":308,"o":"m 85 0 q 78 0 73 6 q 68 11 68 18 l 68 455 q 68 463 73 468 q 78 472 85 472 q 93 472 98 468 q 103 463 103 455 l 103 402 q 115 422 134 439 q 153 456 180 467 q 207 478 242 478 l 279 478 q 286 478 291 473 q 296 468 296 460 q 296 453 291 448 q 286 443 279 443 l 242 443 q 207 443 175 426 q 143 408 123 376 q 103 344 103 298 l 103 18 q 103 11 98 6 q 93 0 85 0 z"},"2":{"x_min":0,"x_max":461,"ha":461,"o":"m 56 0 q 50 0 44 5 q 38 10 38 18 l 38 115 q 38 157 63 192 q 88 227 127 258 q 166 290 210 320 q 255 351 294 384 q 333 418 358 456 q 383 495 383 543 q 383 580 366 614 q 349 649 315 672 q 281 695 229 695 q 170 695 131 662 q 92 628 92 563 q 92 557 88 552 q 83 546 73 546 q 63 546 60 552 q 56 559 56 574 q 56 618 78 654 q 101 689 140 710 q 180 731 231 731 q 289 731 331 705 q 373 679 396 636 q 419 594 419 544 q 419 491 394 448 q 369 405 330 370 q 291 335 246 304 q 202 274 163 244 q 124 215 99 184 q 74 152 74 115 l 74 36 l 412 36 q 419 36 424 31 q 429 26 429 18 q 429 11 424 6 q 419 0 412 0 z"},"{":{"x_min":0,"x_max":285,"ha":285,"o":"m 248 -20 q 199 -20 160 -2 q 120 17 96 51 q 73 85 73 129 q 73 139 75 162 q 77 185 80 214 q 84 243 87 272 q 90 300 92 320 q 94 341 94 347 q 94 359 85 362 q 76 364 64 364 q 52 365 43 368 q 34 372 34 384 q 34 396 43 400 q 52 403 64 404 q 76 404 85 407 q 94 410 94 422 q 94 429 91 454 q 88 479 84 510 q 79 541 76 568 q 73 596 73 607 q 73 639 86 668 q 100 697 124 720 q 148 742 180 755 q 212 768 248 768 q 255 768 260 763 q 265 758 265 751 q 265 744 260 738 q 255 733 248 733 q 207 733 176 714 q 144 696 126 666 q 109 637 109 604 q 109 592 112 566 q 115 539 120 508 q 124 478 127 454 q 130 429 130 422 q 130 406 118 396 q 105 386 96 384 q 105 381 118 372 q 130 363 130 347 q 130 338 127 308 q 124 279 120 242 q 115 206 112 174 q 109 141 109 127 q 109 94 124 72 q 139 51 162 38 q 184 25 208 20 q 231 15 248 15 q 255 15 258 12 q 262 9 264 6 q 265 2 265 -2 q 265 -10 260 -15 q 254 -20 248 -20 z"},"9":{"x_min":0,"x_max":504,"ha":504,"o":"m 244 -6 q 198 -6 162 7 q 125 20 100 44 q 75 67 62 96 q 48 126 48 159 q 48 170 53 174 q 58 179 65 179 q 72 179 78 174 q 84 170 84 161 q 84 121 106 92 q 127 63 164 46 q 200 30 244 30 q 319 30 361 72 q 403 113 403 200 l 403 374 q 377 337 335 318 q 293 300 243 300 q 188 300 144 318 q 100 336 74 378 q 48 421 48 496 l 48 525 q 48 600 74 645 q 100 690 144 710 q 188 731 243 731 q 298 731 342 710 q 387 690 413 645 q 439 600 439 525 l 439 200 q 439 125 413 80 q 387 35 343 14 q 299 -6 244 -6 z m 243 336 q 316 336 360 370 q 403 405 403 487 l 403 525 q 403 612 360 654 q 318 695 243 695 q 168 695 126 654 q 84 612 84 525 l 84 496 q 84 409 126 372 q 168 336 243 336 z"}," ":{"x_min":0,"x_max":200,"ha":200,"o":""},"I":{"x_min":0,"x_max":202,"ha":202,"o":"m 101 0 q 94 0 88 4 q 83 9 83 18 l 83 714 q 83 723 88 727 q 94 731 101 731 q 108 731 114 727 q 119 723 119 714 l 119 18 q 119 9 114 4 q 108 0 101 0 z"},"H":{"x_min":0,"x_max":557,"ha":557,"o":"m 101 0 q 94 0 88 4 q 83 9 83 18 l 83 714 q 83 723 88 727 q 94 731 101 731 q 108 731 114 727 q 119 723 119 714 l 119 397 l 438 397 l 438 714 q 438 723 444 727 q 449 731 456 731 q 463 731 468 727 q 474 723 474 714 l 474 18 q 474 9 468 4 q 463 0 456 0 q 449 0 444 4 q 438 9 438 18 l 438 361 l 119 361 l 119 18 q 119 9 114 4 q 108 0 101 0 z"},"4":{"x_min":0,"x_max":417,"ha":417,"o":"m 307 0 q 300 0 294 4 q 289 9 289 18 l 289 178 l 28 178 q 19 178 15 184 q 11 189 11 196 q 11 200 12 203 q 13 206 14 208 l 271 717 q 275 725 280 728 q 286 731 291 731 q 296 731 300 729 q 303 727 306 724 q 308 720 308 715 q 308 710 305 704 l 57 214 l 289 214 l 289 448 q 289 457 294 461 q 300 465 307 465 q 314 465 320 461 q 325 457 325 448 l 325 214 l 384 214 q 393 214 398 208 q 402 203 402 196 q 402 189 398 184 q 393 178 384 178 l 325 178 l 325 18 q 325 9 320 4 q 314 0 307 0 z"},"~":{"x_min":0,"x_max":400,"ha":400,"o":"m 264 223 q 240 223 222 232 q 203 242 183 251 q 163 260 135 260 q 114 260 101 252 q 88 243 80 234 q 73 225 66 225 q 63 225 60 227 q 57 229 55 233 q 53 237 53 242 q 53 252 62 261 q 70 270 84 278 q 98 285 114 290 q 129 294 142 294 q 167 294 186 285 q 205 276 224 266 q 244 257 269 257 q 292 257 303 265 q 314 273 320 281 q 326 289 334 289 q 338 289 341 287 q 344 285 346 282 q 348 279 348 274 q 348 262 340 253 q 331 244 318 237 q 305 230 290 226 q 276 223 264 223 z"},"D":{"x_min":0,"x_max":550,"ha":550,"o":"m 101 0 q 93 0 88 5 q 83 10 83 17 l 83 714 q 83 721 88 726 q 93 731 101 731 l 278 731 q 333 731 378 710 q 422 690 448 645 q 474 600 474 525 l 474 206 q 474 131 448 86 q 422 41 378 20 q 333 0 278 0 z m 119 36 l 278 36 q 353 36 396 78 q 438 119 438 206 l 438 525 q 438 612 396 654 q 353 695 278 695 l 119 695 z"},"^":{"x_min":0,"x_max":260,"ha":260,"o":"m 18 600 q 11 600 6 606 q 0 611 0 619 q 0 623 2 627 q 5 631 9 633 l 113 689 q 121 694 130 694 q 139 694 147 689 l 251 634 q 256 632 258 627 q 260 622 260 617 q 260 610 255 606 q 250 601 243 601 q 241 601 238 602 q 236 603 234 604 l 130 659 l 26 603 q 24 602 22 601 q 20 600 18 600 z"},"0":{"x_min":0,"x_max":521,"ha":521,"o":"m 260 -6 q 205 -6 161 14 q 117 35 91 80 q 65 125 65 200 l 65 525 q 65 600 91 645 q 117 690 161 710 q 205 731 260 731 q 315 731 360 710 q 404 690 430 645 q 456 600 456 525 l 456 200 q 456 125 430 80 q 404 35 360 14 q 315 -6 260 -6 z m 260 30 q 335 30 378 72 q 420 113 420 200 l 420 525 q 420 612 378 654 q 335 695 260 695 q 185 695 143 654 q 101 612 101 525 l 101 200 q 101 113 143 72 q 185 30 260 30 z m 261 330 q 248 330 238 340 q 229 349 229 362 q 229 375 238 384 q 248 393 261 393 q 274 393 283 384 q 292 375 292 362 q 292 349 283 340 q 274 330 261 330 z"},"F":{"x_min":0,"x_max":489,"ha":489,"o":"m 101 0 q 94 0 88 4 q 83 8 83 17 l 83 713 q 83 722 88 726 q 94 731 101 731 l 457 731 q 466 731 470 726 q 474 720 474 714 q 474 707 470 701 q 465 695 457 695 l 119 695 l 119 384 l 279 384 q 287 384 292 378 q 296 373 296 365 q 296 359 292 354 q 288 348 279 348 l 119 348 l 119 17 q 119 8 114 4 q 108 0 101 0 z"},"`":{"x_min":0,"x_max":133,"ha":133,"o":""},"k":{"x_min":0,"x_max":437,"ha":437,"o":"m 86 0 q 79 0 74 6 q 69 11 69 18 l 69 751 q 69 759 74 764 q 79 768 86 768 q 94 768 99 764 q 104 759 104 751 l 104 233 l 374 468 q 380 472 384 472 q 389 472 393 470 q 397 469 400 466 q 403 462 403 456 q 403 452 402 448 q 401 444 397 441 l 236 301 l 421 28 q 424 24 424 18 q 424 14 422 10 q 420 5 416 2 q 412 0 407 0 q 399 0 393 9 l 209 278 l 104 186 l 104 18 q 104 11 99 6 q 94 0 86 0 z"},"u":{"x_min":0,"x_max":483,"ha":483,"o":"m 242 -6 q 193 -6 152 19 q 112 44 88 86 q 64 127 64 174 l 64 454 q 64 461 70 466 q 75 472 82 472 q 89 472 94 466 q 99 461 99 454 l 99 174 q 99 137 118 104 q 137 71 170 50 q 202 29 242 29 q 282 29 314 50 q 346 70 365 104 q 384 137 384 174 l 384 455 q 384 462 390 467 q 395 472 402 472 q 410 472 414 467 q 419 462 419 455 l 419 174 q 419 126 395 85 q 371 44 330 19 q 290 -6 242 -6 z"},"]":{"x_min":0,"x_max":285,"ha":285,"o":"m 37 -21 q 30 -21 25 -16 q 20 -11 20 -4 q 20 4 25 9 q 30 14 37 14 l 175 14 l 175 733 l 37 733 q 30 733 25 738 q 20 744 20 751 q 20 758 25 763 q 30 768 37 768 l 193 768 q 201 768 206 763 q 211 758 211 751 l 211 -4 q 211 -11 206 -16 q 200 -21 193 -21 z"},"U":{"x_min":0,"x_max":549,"ha":549,"o":"m 274 -6 q 219 -6 175 14 q 131 35 105 80 q 79 125 79 200 l 79 714 q 79 723 84 727 q 90 731 97 731 q 104 731 110 727 q 115 723 115 714 l 115 200 q 115 113 157 72 q 199 30 274 30 q 349 30 392 72 q 434 113 434 200 l 434 714 q 434 723 440 727 q 445 731 452 731 q 459 731 464 727 q 470 723 470 714 l 470 200 q 470 125 444 80 q 418 35 374 14 q 329 -6 274 -6 z"},"o":{"x_min":0,"x_max":455,"ha":455,"o":"m 227 -6 q 180 -6 140 20 q 99 45 74 86 q 50 128 50 176 l 50 298 q 50 346 74 387 q 98 428 138 453 q 179 478 227 478 q 275 478 316 454 q 356 429 380 388 q 405 348 405 298 l 405 176 q 405 129 380 87 q 356 45 316 20 q 275 -6 227 -6 z m 227 29 q 267 29 299 50 q 331 71 350 105 q 370 139 370 176 l 370 298 q 370 335 351 368 q 332 401 300 422 q 267 443 227 443 q 187 443 155 422 q 123 401 104 368 q 85 335 85 298 l 85 176 q 85 139 104 105 q 123 71 156 50 q 188 29 227 29 z"},"N":{"x_min":0,"x_max":557,"ha":557,"o":"m 101 0 q 94 0 88 4 q 83 9 83 18 l 83 714 q 83 724 88 728 q 94 731 101 731 q 108 731 114 724 q 120 717 125 708 q 130 700 132 695 l 438 89 l 438 714 q 438 723 444 727 q 449 731 456 731 q 463 731 468 727 q 474 723 474 714 l 474 18 q 474 9 468 4 q 463 0 456 0 q 446 0 439 13 q 432 26 427 36 l 119 643 l 119 18 q 119 9 114 4 q 108 0 101 0 z"},"+":{"x_min":0,"x_max":427,"ha":427,"o":"m 214 63 q 207 63 202 68 q 196 73 196 80 l 196 223 l 53 223 q 46 223 41 228 q 36 233 36 240 q 36 248 41 253 q 46 258 53 258 l 196 258 l 196 400 q 196 407 202 412 q 207 418 214 418 q 222 418 226 412 q 231 407 231 400 l 231 258 l 373 258 q 380 258 386 253 q 391 248 391 240 q 391 233 386 228 q 380 223 373 223 l 231 223 l 231 80 q 231 73 226 68 q 222 63 214 63 z"},"G":{"x_min":0,"x_max":531,"ha":531,"o":"m 271 -6 q 216 -6 172 14 q 128 35 102 80 q 76 125 76 200 l 76 525 q 76 600 102 645 q 128 690 172 710 q 216 731 271 731 q 333 731 376 709 q 420 687 444 650 q 467 612 467 566 q 467 556 462 551 q 456 546 449 546 q 442 546 437 550 q 432 555 431 564 q 425 609 404 638 q 383 667 349 681 q 315 695 271 695 q 196 695 154 654 q 112 612 112 525 l 112 200 q 112 113 154 72 q 196 30 271 30 q 346 30 388 72 q 431 113 431 200 l 431 348 l 272 348 q 264 348 260 354 q 255 359 255 366 q 255 373 260 378 q 264 384 272 384 l 450 384 q 458 384 462 378 q 467 373 467 365 l 467 200 q 467 125 441 80 q 415 35 370 14 q 326 -6 271 -6 z"},"q":{"x_min":0,"x_max":468,"ha":468,"o":"m 382 -237 q 375 -237 370 -232 q 364 -226 364 -219 l 364 70 q 348 39 311 16 q 274 -6 228 -6 q 181 -6 140 20 q 99 45 74 87 q 50 129 50 176 l 50 298 q 50 348 74 388 q 99 429 140 454 q 181 478 230 478 q 280 478 314 454 q 348 431 364 402 l 364 455 q 364 463 370 468 q 375 472 382 472 q 390 472 394 468 q 399 463 399 455 l 399 -219 q 399 -226 394 -232 q 390 -237 382 -237 z m 226 29 q 266 29 297 50 q 328 70 346 96 q 364 122 364 139 l 364 298 q 364 344 344 376 q 324 408 292 426 q 261 443 227 443 q 188 443 156 422 q 124 401 104 368 q 85 335 85 298 l 85 176 q 85 139 104 105 q 124 71 156 50 q 188 29 226 29 z"},"d":{"x_min":0,"x_max":468,"ha":468,"o":"m 228 -6 q 181 -6 140 20 q 99 45 74 87 q 50 129 50 176 l 50 298 q 50 348 74 388 q 99 429 140 454 q 181 478 230 478 q 280 478 314 454 q 348 431 364 402 l 364 751 q 364 759 370 764 q 375 768 382 768 q 390 768 394 764 q 399 759 399 751 l 399 18 q 399 11 394 6 q 390 0 382 0 q 375 0 370 6 q 364 11 364 18 l 364 70 q 348 39 311 16 q 274 -6 228 -6 z m 226 29 q 266 29 297 50 q 328 70 346 96 q 364 122 364 139 l 364 298 q 364 344 344 376 q 324 408 292 426 q 261 443 227 443 q 188 443 156 422 q 124 401 104 368 q 85 335 85 298 l 85 176 q 85 139 104 105 q 124 71 156 50 q 188 29 226 29 z"},"1":{"x_min":0,"x_max":209,"ha":209,"o":"m 116 0 q 109 0 104 4 q 98 9 98 18 l 98 639 l 55 559 q 51 552 46 549 q 42 546 37 546 q 30 546 24 551 q 19 556 19 563 q 19 568 24 576 q 28 583 29 586 l 95 714 q 99 721 104 726 q 108 731 118 731 q 125 731 130 727 q 134 723 134 714 l 134 18 q 134 9 128 4 q 123 0 116 0 z"},"5":{"x_min":0,"x_max":459,"ha":459,"o":"m 227 -6 q 166 -6 122 16 q 78 39 55 76 q 32 113 32 159 q 32 170 37 174 q 42 179 49 179 q 56 179 62 174 q 68 170 68 161 q 68 120 90 90 q 111 61 147 46 q 183 30 227 30 q 302 30 344 72 q 387 113 387 200 l 387 219 q 387 302 344 342 q 302 383 228 383 l 93 383 q 77 383 72 388 q 68 392 68 397 q 68 402 68 406 q 69 410 69 414 l 87 713 q 88 721 92 726 q 97 731 105 731 l 372 731 q 380 731 384 726 q 387 720 387 713 q 387 706 384 700 q 380 695 372 695 l 123 695 l 104 419 l 228 419 q 283 419 327 400 q 371 380 397 336 q 423 292 423 219 l 423 200 q 423 125 397 80 q 371 35 326 14 q 282 -6 227 -6 z"}}}
